HIERARCHY
ROOT Hips
{
  OFFSET 9.17763 102.617 -181.618
  CHANNELS 6 Xposition Yposition Zposition Zrotation Xrotation Yrotation
  JOINT RightUpLeg
  {
    OFFSET -8.9458 -8.66707 0.101652
    CHANNELS 3 Zrotation Xrotation Yrotation
    JOINT RightLeg
    {
      OFFSET 0 -44.4227 1.3727
      CHANNELS 3 Zrotation Xrotation Yrotation
      JOINT RightFoot
      {
        OFFSET 0.253549 -42.0924 -1.46059
        CHANNELS 3 Zrotation Xrotation Yrotation
        JOINT RightToes
        {
          OFFSET 0.04 -4.41509 8.4991
          CHANNELS 3 Zrotation Xrotation Yrotation
          End Site
          {
            OFFSET -0.08 -0.137448 9.77979
          }
        }
      }
    }
  }
  JOINT Spine
  {
    OFFSET 0 11.8905 0
    CHANNELS 3 Zrotation Xrotation Yrotation
    JOINT Spine1
    {
      OFFSET 0 25.6574 0.127663
      CHANNELS 3 Zrotation Xrotation Yrotation
      JOINT HEad
      {
        OFFSET 0 8.73416 0.011341
        CHANNELS 3 Zrotation Xrotation Yrotation
        End Site
        {
          OFFSET -0.29 12.7742 2.51395
        }
      }
      JOINT LeftShoulder1
      {
        OFFSET 8.99 -0.362252 -0.22
        CHANNELS 3 Zrotation Xrotation Yrotation
        JOINT LeftArm
        {
          OFFSET 10.2827 -0.00338 0.322123
          CHANNELS 3 Zrotation Xrotation Yrotation
          JOINT LeftForeArm
          {
            OFFSET 32.7669 0.099144 -1.42434
            CHANNELS 3 Zrotation Xrotation Yrotation
            JOINT LeftHand
            {
              OFFSET 27.5643 0.085362 1.02216
              CHANNELS 3 Zrotation Xrotation Yrotation
              End Site
              {
                OFFSET 16.7443 -0.6 1.50291
              }
            }
          }
        }
      }
      JOINT RightShoulder
      {
        OFFSET -8.99 -0.362252 -0.22
        CHANNELS 3 Zrotation Xrotation Yrotation
        JOINT RightArm
        {
          OFFSET -10.2827 -0.00338 0.322123
          CHANNELS 3 Zrotation Xrotation Yrotation
          JOINT RightForeArm
          {
            OFFSET -32.8971 0.099144 -1.42434
            CHANNELS 3 Zrotation Xrotation Yrotation
            JOINT RightHand
            {
              OFFSET -27.4921 0.085362 1.02216
              CHANNELS 3 Zrotation Xrotation Yrotation
              End Site
              {
                OFFSET -16.6312 -0.6 1.50291
              }
            }
          }
        }
      }
    }
  }
  JOINT LeftUpLeg
  {
    OFFSET 8.9458 -8.66707 0.101652
    CHANNELS 3 Zrotation Xrotation Yrotation
    JOINT LeftLeg
    {
      OFFSET 0 -44.4227 1.3727
      CHANNELS 3 Zrotation Xrotation Yrotation
      JOINT LeftFoot
      {
        OFFSET -0.253549 -42.0924 -1.46059
        CHANNELS 3 Zrotation Xrotation Yrotation
        JOINT LeftToes
        {
          OFFSET -0.04 -4.41509 8.4991
          CHANNELS 3 Zrotation Xrotation Yrotation
          End Site
          {
            OFFSET 0.08 -0.047448 9.77979
          }
        }
      }
    }
  }
}
MOTION
Frames:	14
Frame Time:	0.0166667
12.2265 101.242 -19.7625 3.36961 -0.928143 -4.956 0.464868 0.178699 -13.2195 -17.8106 47.6262 10.758 6.29344 -5.86603 -0.012673 -0.411455 13.3619 26.1513 4.173 3.26327 -1.75172 -7.76418 3.04944 0.219789 1.71696 0.263489 9.51699 -0 0 7.95139e-016 -75.2587 -41.7025 12.4393 -24.0634 16.1168 -23.0165 0.368473 9.90896 -0.00117926 -10.6008 -0.157674 15.487 100.166 -28 12.2779 18.1796 16.0226 22.5892 -0.369625 9.91382 0.00119886 -9.52894 -18.4 -8.53619 -0.146134 16.3767 4.70121 3.09241 -3.62911 0.039828 16.3843 -22.8069 22.6482 
12.3683 101.329 -17.8677 4.08541 -1.20665 -4.87112 -1.02136 -2.14535 -15.2299 -22 51.1917 16.461 6.17036 -2.73794 -0.133835 -1.45328 17.2468 27.2474 3.45462 3.4335 -1.84247 -8.40355 3.79829 0.304581 1.07798 0.267358 9.09542 -9.93923e-017 0 -0 -76.408 -42.3809 10.3272 -23.4135 16.1839 -23.4276 0.368473 9.90896 -0.00117926 -11.3188 -0.271199 15.1887 101.487 -28.5981 12.1369 17.5862 15.4177 19.3021 -0.369625 9.91382 0.00119886 -10.5435 -17.2097 -8.51134 -0.127228 16.9846 4.52167 3.21199 -5.01005 0.0806244 16.4913 -22.4265 22.8513 
12.4975 101.406 -16.0488 4.78552 -1.42109 -4.95735 -2.45184 -4.72519 -16.85 -27.1164 54.3166 22.6678 5.65184 -1.08606 -0.22233 -1.88462 20.0868 25.9463 2.61947 3.63722 -1.87632 -8.91919 4.47792 0.384974 0.166585 0.300092 8.70435 -1.98785e-016 3.18055e-015 -0 -77.6264 -42.7801 8.21948 -22.8884 16.2875 -24.0331 0.368473 9.90896 -0.00117926 -12.028 -0.382643 14.8375 102.527 -28.8133 11.9418 17.1888 14.8832 16.258 -0.369625 9.91382 0.00119886 -11.4599 -16.0231 -8.2824 -0.110774 17.3659 4.36385 3.25202 -6.41887 0.124804 16.481 -21.8305 22.9332 
12.5904 101.558 -14.2332 5.19452 -1.46675 -5.30851 -3.20999 -7.59977 -16.914 -30.9438 57.3632 25.3068 5.55949 -1.17008 -0.215569 -1.5613 19.8999 23.1095 1.9421 3.79482 -1.84101 -9.1071 4.81755 0.427394 -0.953987 0.387161 8.49999 -7.95139e-016 -3.18055e-015 1.59028e-015 -78.5517 -42.7023 6.48215 -22.6416 16.4627 -24.9784 0.368473 9.90896 -0.00117926 -12.3925 -0.439408 14.735 102.762 -28.8172 11.4661 17.1671 14.4738 13.7124 -0.369625 9.91382 0.00119886 -11.9256 -14.8459 -8.53844 -0.322243 17.3755 4.86145 3.25135 -7.58255 0.160784 16.8369 -21.6293 23.4594 
12.6545 101.761 -12.419 5.32826 -1.36901 -5.81047 -3.4955 -10.6282 -15.8517 -32.9775 60.3634 25.2398 5.29172 -2.04326 -0.177968 -1.06917 18.4315 19.7741 1.43993 3.9259 -1.75263 -8.95073 4.94423 0.438666 -1.63021 0.389825 8.66214 -0 0 1.59028e-015 -79.33 -42.2642 4.95654 -22.581 16.6837 -26.1226 0.368473 9.90896 -0.00117926 -12.6347 -0.479114 14.7804 102.486 -28.7114 10.7197 17.4171 14.1715 11.7097 -0.369625 9.91382 0.00119886 -12.0052 -13.6952 -8.44182 -0.47191 17.1443 5.07949 3.29222 -8.62154 0.196328 17.4293 -21.4555 24.3062 
12.6897 102.068 -10.561 4.97765 -1.06561 -6.42039 -3.29474 -13.6537 -13.0588 -30.7753 63.381 20.313 4.30816 -2.68772 -0.159723 -0.730575 17.1216 17.5527 1.40987 4.01277 -1.6283 -8.24385 4.82272 0.402516 -0.682491 0.0777397 9.6995 -4.41391e-032 -1.59028e-015 -1.59028e-015 -80.0029 -41.4445 3.63612 -22.7229 16.9486 -27.3984 0.368473 9.90896 -0.00117926 -12.9052 -0.530238 15.0229 101.788 -28.6616 9.59937 17.8988 13.9647 10.4155 -0.369625 9.91382 0.00119886 -11.5551 -12.5348 -7.04737 -0.255435 16.604 3.91472 3.52497 -9.50379 0.234737 18.454 -21.0096 25.7956 
12.6959 102.328 -8.71734 4.55602 -0.716538 -7.01854 -2.58297 -16.6685 -10.3175 -27.3928 65.4307 14.5265 3.26119 -3.57662 -0.140591 -0.414895 15.5731 15.5239 1.2896 4.08763 -1.45272 -7.35561 4.66908 0.355048 0.398868 -0.244943 10.782 -7.95139e-016 3.18055e-015 -0 -80.606 -40.4443 2.37235 -22.9001 17.2258 -28.7299 0.368473 9.90896 -0.00117926 -13.085 -0.568037 15.3144 100.741 -28.6326 8.21253 18.5547 13.8581 9.73511 -0.369625 9.91382 0.00119886 -11.0688 -11.4853 -5.41738 -0.00311897 16.1968 2.5246 3.78596 -10.4137 0.277964 19.3867 -20.6914 27.1478 
12.6662 102.362 -6.94846 4.49384 -0.467855 -7.51158 -1.81598 -19.6626 -9.88209 -29.2065 65.8449 15.3527 2.73209 -4.96359 -0.113924 -0.108534 13.7291 13.0866 0.39389 4.19575 -1.17842 -6.57722 4.69611 0.330992 0.0993155 -0.283301 11.1266 -5.96354e-016 0 -1.59028e-015 -81.2061 -39.454 1.04551 -22.9624 17.4945 -30.0108 0.368473 9.90896 -0.00117926 -13.1176 -0.581938 15.6375 99.361 -28.6852 6.5229 19.3334 13.8674 9.82523 -0.369625 9.91382 0.00119886 -10.9551 -10.8057 -4.0877 0.118036 16.5549 1.58679 3.96369 -11.5852 0.333207 20.0034 -20.9792 27.9429 
12.6217 102.313 -5.20213 4.49608 -0.295775 -7.77698 -1.11694 -22.3991 -10.1134 -31.797 65.3503 17.659 2.39566 -6.4893 -0.089062 0.0836193 11.877 10.9056 -0.61284 4.28021 -0.918934 -5.93441 4.8783 0.318036 -0.422514 -0.25579 11.0982 -1.98785e-016 0 1.59028e-015 -81.8102 -38.4523 -0.484236 -22.8984 17.7431 -31.2584 0.368473 9.90896 -0.00117926 -12.9694 -0.558775 15.6481 97.8885 -28.7024 4.85123 20.1242 13.9017 10.1103 -0.369625 9.91382 0.00119886 -11.0057 -10.1363 -3.61935 0.139154 17.107 1.37429 4.05547 -12.8376 0.388917 19.7154 -21.3841 27.4729 
12.5822 102.288 -3.44734 4.36241 -0.240205 -7.58631 -0.448621 -24.6022 -9.81806 -31.444 64.4771 17.5064 2.08925 -7.88884 -0.076426 0.18706 10.4431 9.52599 -1.21123 4.28601 -0.790749 -5.57394 5.33366 0.316836 -0.354096 -0.308376 10.755 0 0 -1.59028e-015 -82.4606 -37.4336 -2.50898 -22.6195 17.9498 -32.4495 0.368473 9.90896 -0.00117926 -12.5478 -0.467774 14.8394 96.609 -28.5347 3.57055 20.8063 13.858 9.98751 -0.369625 9.91382 0.00119886 -11.1248 -9.13361 -5.37928 -0.10646 17.4361 2.8597 3.90903 -14.1712 0.428641 16.8424 -20.8565 23.6364 
12.5447 102.228 -1.68094 4.23828 -0.255644 -7.16377 0.147767 -26.4612 -9.64049 -30.3456 62.9917 16.9444 1.90148 -9.13248 -0.0663161 0.269025 9.09926 8.57453 -1.64641 4.25299 -0.737901 -5.4248 5.84445 0.323335 -0.146137 -0.358955 10.2349 1.98785e-016 4.77083e-015 -7.95139e-016 -83.073 -36.4962 -4.66418 -22.2168 18.1319 -33.5958 0.368473 9.90896 -0.00117926 -11.9641 -0.348512 13.6824 95.4422 -28.4008 2.50979 21.3502 13.7803 9.69802 -0.369625 9.91382 0.00119886 -11.2475 -7.99555 -7.47366 -0.369596 17.6715 4.67203 3.85647 -15.2769 0.473136 14.4179 -21.3251 20.1412 
12.518 102.086 0.111146 4.23218 -0.321265 -6.65552 0.566787 -28.1085 -10.0304 -29.6935 60.7874 16.9066 1.91683 -10.0043 -0.0508296 0.346976 7.42393 8.00905 -1.98634 4.20236 -0.752304 -5.50244 6.22784 0.335116 -0.0236463 -0.386419 9.70448 4.41391e-032 3.18055e-015 -7.95139e-016 -83.6475 -35.8129 -6.70947 -21.7294 18.3056 -34.7386 0.368473 9.90896 -0.00117926 -11.3106 -0.232988 12.4529 94.4273 -28.4815 1.67286 21.6433 13.6573 9.17949 -0.369625 9.91382 0.00119886 -11.4641 -6.82759 -8.18601 -0.334047 17.8083 5.74543 4.40904 -15.5083 0.551438 15.4572 -26.8233 20.8944 
12.4867 101.934 1.9272 4.26432 -0.404147 -6.06748 0.882325 -29.4219 -10.4673 -28.5639 58.0006 16.6314 1.9873 -10.7979 -0.0347565 0.397195 6.04857 7.44989 -2.24565 4.13482 -0.806634 -5.69408 6.49721 0.347774 0.154487 -0.352699 9.13604 5.96354e-016 1.59028e-015 -1.59028e-015 -84.1599 -35.222 -8.67518 -21.22 18.4492 -35.768 0.368473 9.90896 -0.00117926 -10.5623 -0.116916 11.2303 93.4304 -28.728 0.877293 21.811 13.55 8.74065 -0.369625 9.91382 0.00119886 -11.6765 -5.6042 -8.42839 -0.249535 17.9327 6.10339 4.87663 -15.8775 0.621278 17.954 -30.9887 23.539 
12.438 101.836 3.77578 4.31753 -0.466203 -5.46234 1.18261 -30.3142 -10.5128 -26.5848 54.7168 15.8962 1.95413 -11.8418 -0.0211941 0.362642 5.6192 6.2499 -2.48724 4.0542 -0.872854 -5.91238 6.57777 0.356475 0.494646 -0.194595 8.56363 -1.98785e-016 0 7.95139e-016 -84.5433 -34.6504 -10.4749 -20.7735 18.5515 -36.5785 0.368473 9.90896 -0.00117926 -9.73824 -0.00892482 10.2338 92.3342 -29.2181 -0.0874216 21.9179 13.5309 8.7249 -0.369625 9.91382 0.00119886 -11.7807 -4.3332 -8.47714 -0.31242 18.2102 5.01349 4.48307 -17.6412 0.635744 19.4571 -26.4516 25.98 
